<?xml version="1.0" standalone="no"?>
<!DOCTYPE svg PUBLIC "-//W3C//DTD SVG 20010904//EN"
 "http://www.w3.org/TR/2001/REC-SVG-20010904/DTD/svg10.dtd">
<svg version="1.0" xmlns="http://www.w3.org/2000/svg"
 width="204.000000pt" height="217.000000pt" viewBox="0 0 204.000000 217.000000"
 preserveAspectRatio="xMidYMid meet">
<metadata>
Created by potrace 1.10, written by Peter Selinger 2001-2011
</metadata>
<g transform="translate(0.000000,217.000000) scale(0.100000,-0.100000)"
fill="#000000" stroke="none">
<path d="M830 1941 c-271 -57 -512 -287 -590 -561 -27 -96 -37 -256 -21 -355
52 -322 278 -570 596 -656 113 -31 297 -31 410 0 206 56 388 190 494 366 135
222 146 545 28 783 -74 149 -215 286 -375 366 -144 72 -361 95 -542 57z m415
-41 c138 -43 249 -114 350 -221 92 -98 147 -198 182 -329 17 -63 32 -279 20
-287 -4 -2 -5 -8 -2 -13 5 -8 -23 -118 -43 -170 -48 -122 -93 -192 -181 -279
-155 -152 -327 -223 -546 -224 -142 -1 -252 25 -370 85 -85 44 -240 173 -240
200 0 5 -5 12 -11 16 -6 4 -24 27 -40 52 -79 118 -124 269 -124 418 0 374 249
684 617 766 99 23 295 15 388 -14z"/>
<path d="M880 1824 c-72 -16 -223 -84 -257 -116 -13 -12 -23 -32 -23 -44 0
-17 92 -114 336 -356 184 -183 337 -331 340 -329 2 2 4 0 4 -5 0 -14 212 -230
222 -227 5 2 8 -2 8 -7 0 -20 40 -9 66 18 41 42 101 178 120 272 43 214 -31
447 -192 606 -165 163 -405 235 -624 188z m340 -48 c229 -79 406 -280 446
-506 27 -154 0 -310 -77 -442 -22 -37 -43 -69 -48 -72 -11 -7 -923 904 -918
917 7 22 192 107 262 122 100 21 245 13 335 -19z"/>
<path d="M983 1729 c-37 -14 -43 -41 -43 -201 l0 -154 65 -64 65 -64 0 225 c0
203 -2 227 -17 241 -26 22 -45 26 -70 17z m48 -219 c0 -84 -3 -155 -7 -159 -3
-3 -14 5 -25 18 -17 20 -19 40 -19 160 0 143 9 177 38 147 11 -10 14 -49 13
-166z"/>
<path d="M825 1658 c-30 -17 -35 -28 -35 -83 0 -49 2 -53 65 -115 l65 -64 0
114 c0 122 -2 130 -37 149 -26 14 -33 13 -58 -1z m51 -52 c3 -7 4 -35 2 -62
l-3 -49 -22 23 c-22 21 -32 80 -16 95 11 12 33 8 39 -7z"/>
<path d="M1111 1624 c-20 -25 -21 -40 -21 -213 l0 -186 145 -145 145 -145 0
278 c0 177 -4 286 -11 298 -21 41 -86 44 -111 5 -4 -6 -8 -77 -8 -158 0 -127
-2 -148 -16 -148 -13 0 -15 25 -13 200 2 180 0 202 -16 220 -26 29 -69 26 -94
-6z m73 -76 c3 -29 6 -117 6 -195 0 -141 0 -143 25 -159 24 -15 27 -15 44 0
16 14 19 37 23 152 3 92 9 138 18 147 10 9 13 9 17 0 3 -7 10 -13 18 -13 12 0
18 -46 8 -64 -3 -4 -5 -86 -4 -181 2 -121 -1 -175 -9 -180 -7 -4 -50 31 -106
89 l-94 95 0 165 c0 90 3 171 6 180 3 9 14 16 24 16 13 0 19 -12 24 -52z"/>
<path d="M466 1547 c-78 -84 -131 -242 -131 -392 0 -119 19 -197 75 -311 80
-164 223 -283 420 -350 79 -27 302 -27 380 0 138 47 230 106 230 147 0 21
-908 939 -930 939 -7 0 -27 -15 -44 -33z m951 -911 c-8 -23 -157 -97 -236
-117 -110 -28 -262 -23 -361 10 -81 28 -190 91 -248 144 -55 52 -143 185 -171
261 -67 182 -44 389 64 566 l36 60 460 -457 c253 -251 458 -461 456 -467z"/>
<path d="M790 1125 l0 -110 -49 88 c-26 49 -55 95 -64 104 -34 34 -107 6 -107
-41 0 -12 43 -118 96 -236 135 -304 164 -331 366 -338 108 -4 121 -2 170 21
29 13 69 40 89 58 l36 34 -268 265 -269 265 0 -110z m-94 -19 c22 -36 50 -77
62 -89 l22 -21 21 21 c13 13 23 39 26 67 3 25 8 46 12 46 3 0 100 -94 215
-209 140 -140 207 -214 203 -224 -3 -8 -31 -27 -61 -42 -52 -25 -63 -27 -163
-24 -97 4 -113 7 -156 32 -62 37 -81 67 -177 284 -77 175 -88 211 -73 227 14
13 29 -2 69 -68z"/>
<path d="M0 115 c0 -8 9 -15 20 -15 13 0 24 -10 30 -24 5 -14 18 -30 29 -35
21 -12 228 -15 256 -5 8 4 22 19 31 35 l15 29 654 0 655 0 27 -28 c25 -25 33
-27 67 -21 22 3 67 5 100 4 33 -2 69 1 80 5 25 10 -6 12 -151 11 -70 -1 -93 2
-93 12 0 10 28 13 123 12 67 0 128 -4 135 -8 7 -5 12 -4 12 2 0 6 11 11 25 11
16 0 25 6 25 15 0 13 -120 15 -1020 15 -900 0 -1020 -2 -1020 -15z m340 -20
c5 3 11 1 15 -5 3 -5 1 -10 -5 -10 -7 0 -10 -6 -7 -12 3 -9 -8 -13 -35 -14
-37 -1 -38 0 -24 20 8 12 19 20 25 19 6 -2 11 3 12 10 0 9 2 9 6 -1 2 -6 9
-10 13 -7z m-220 -4 c8 -6 19 -7 25 -3 5 4 38 8 73 9 67 3 76 -7 34 -35 -20
-13 -22 -13 -22 4 0 15 -2 16 -9 5 -11 -17 -100 -19 -111 -2 -5 10 -9 9 -13
-3 -4 -9 -11 -16 -17 -16 -14 0 -12 37 3 43 18 8 21 8 37 -2z"/>
<path d="M1788 23 c23 -2 61 -2 85 0 23 2 4 4 -43 4 -47 0 -66 -2 -42 -4z"/>
</g>
</svg>
